# xmcd
#
# Track frame offsets:
#	150
#	14528
#	27388
#	42608
#	57094
#	70333
#	82826
#	99041
#	117568
#	134584
#	146897
#	161178
#	171639
#	182549
#	196523
#	211948
#	226932
#	242972
#	254743
#	268964
#
# Disc length: 3728 seconds
#
# Revision: 1
# Processed by: cddbd v1.5.2PL0 Copyright (c) Steve Scherf et al.
# Submitted via: EasyCDDAExtractor 12.0.1.1
#
DISCID=2e0e8e14
DTITLE=Various Artist - The Ultimate Ballroom Album 8 CD2
DYEAR=2005
DGENRE=Dance Hall
TTITLE0=101 Strings Orchestra - EW 29 - Vito's Waltz
TTITLE1=Bing Crosby - EW 29 - What'll I Do
TTITLE2=Perry Como - EW 29 - Sunrise Sunset
TTITLE3=Norrie Paramor Orchestra - EW 29 - Warsaw Concerto
TTITLE4=101 Strings Orchestra - EW 29 - True Love
TTITLE5=Bing Crosby - EW 29 - Always
TTITLE6=Ronnie Aldrich Orchestra - EW 29 - Shadow Waltz
TTITLE7=D. Hirschfelder Orchestra - EW 29 - The Tearful Waltz
TTITLE8=Norrie Paramor Orchestra - EW 29 - The Haunted Ballroom
TTITLE9=101 Strings Orchestra - EW 29 - Jean
TTITLE10=Stanley Black Orchestra - TG 31 - Tango Notturno
TTITLE11=Jack Hansen Orchestra - TG 31 - Last Tango In Paris
TTITLE12=Edmundo Ros Orchestra - TG 31 - La Golandrina
TTITLE13=Ted Heath Orchestra - TG 31 - Hernando's Hideaway
TTITLE14=James Last Orchestra - TG 31 - Blue Tango
TTITLE15=Stanley Black Orchestra - TG 31 - The Pearl Fishers' Tango
TTITLE16=Gotan Project - TG 31 - Una Musica Brutal
TTITLE17=Dean Martin - WW 59 - That's Amore
TTITLE18=101 Strings Orchestra - WW 59 - Lara's Theme
TTITLE19=Mantovanni Orchestra - Out Of My Dreams
EXTD=
EXTT0=
EXTT1=
EXTT2=
EXTT3=
EXTT4=
EXTT5=
EXTT6=
EXTT7=
EXTT8=
EXTT9=
EXTT10=
EXTT11=
EXTT12=
EXTT13=
EXTT14=
EXTT15=
EXTT16=
EXTT17=
EXTT18=
EXTT19=
PLAYORDER=
